# xmcd CD database file
#
# Track frame offsets:
#	150
#	38855
#	46565
#	53197
#	89875
#	92722
#	108462
#	120662
#	134370
#
# Disc length: 2478 seconds
#
# Revision: 12
# Processed by: cddbd v1.5.2PL0 Copyright (c) Steve Scherf et al.
# Submitted via: CDex 1.70beta2
#
DISCID=6c099009,7409a609,7409a709,75099009,7709ac09,7b09a609
DTITLE=Yes - Fragile
DYEAR=1972
DGENRE=Progressive Rock
TTITLE0=Roundabout
TTITLE1=Cans And Brahms
TTITLE2=We Have Heaven
TTITLE3=South Side Of The Sky
TTITLE4=Five Per Cent For Nothing
TTITLE5=Long Distance Runaround
TTITLE6=The Fish (Shindleria Praematurus)
TTITLE7=Mood For A Day
TTITLE8=Heart Of The Sunrise
EXTD=YEAR: 1972
EXTT0=
EXTT1=
EXTT2=
EXTT3=
EXTT4=
EXTT5=
EXTT6=
EXTT7=
EXTT8=
PLAYORDER=
